<svg xmlns="http://www.w3.org/2000/svg" width="87" height="41" viewBox="0 0 87 41" version="1.1"><path d="M 17 15 C 17 17.762, 16.722 18, 13.500 18 C 10.278 18, 10 18.238, 10 21 C 10 23.762, 10.278 24, 13.500 24 C 16.833 24, 17 24.167, 17 27.500 C 17 30.722, 17.238 31, 20 31 C 22.762 31, 23 30.722, 23 27.500 C 23 24.167, 23.167 24, 26.500 24 C 29.722 24, 30 23.762, 30 21 C 30 18.238, 29.722 18, 26.500 18 C 23.278 18, 23 17.762, 23 15 C 23 12.333, 22.667 12, 20 12 C 17.333 12, 17 12.333, 17 15 M 63.530 12.952 C 62.256 15.013, 64.059 18.133, 66.336 17.808 C 69.390 17.373, 69.397 12.628, 66.344 12.193 C 65.159 12.024, 63.892 12.365, 63.530 12.952 M 57.389 19.430 C 56.393 22.025, 57.788 24.169, 60.246 23.820 C 61.898 23.585, 62.500 22.833, 62.500 21 C 62.500 19.167, 61.898 18.415, 60.246 18.180 C 58.893 17.988, 57.750 18.488, 57.389 19.430 M 70.105 19.373 C 68.462 21.353, 69.832 24, 72.500 24 C 73.757 24, 75.067 23.268, 75.410 22.373 C 76.111 20.548, 74.415 18, 72.500 18 C 71.810 18, 70.732 18.618, 70.105 19.373 M 64.200 25.200 C 61.738 27.662, 64.162 31.643, 67.373 30.410 C 69.459 29.610, 69.491 25.403, 67.418 24.607 C 65.404 23.834, 65.602 23.798, 64.200 25.200" stroke="none" fill="#fcf3f8" fill-rule="evenodd"/><path d="M 19.818 0.927 C 8.057 2.198, 0.892 9.292, 0.194 20.356 C -0.161 25.989, 0.085 26.911, 3.153 31.443 C 9.117 40.250, 19.284 43.325, 28.541 39.120 C 33.025 37.084, 37.675 32.142, 38.609 28.423 C 39.116 26.402, 39.821 26.008, 42.858 26.045 C 46.246 26.088, 46.674 26.454, 49 31.295 C 52.408 38.391, 57.822 41.283, 66.729 40.768 C 84.597 39.735, 92.403 19.875, 80.136 6.661 C 74.644 0.745, 73.520 0.517, 49 0.354 C 36.625 0.272, 23.493 0.530, 19.818 0.927 M 17 15 C 17 17.762, 16.722 18, 13.500 18 C 10.278 18, 10 18.238, 10 21 C 10 23.762, 10.278 24, 13.500 24 C 16.833 24, 17 24.167, 17 27.500 C 17 30.722, 17.238 31, 20 31 C 22.762 31, 23 30.722, 23 27.500 C 23 24.167, 23.167 24, 26.500 24 C 29.722 24, 30 23.762, 30 21 C 30 18.238, 29.722 18, 26.500 18 C 23.278 18, 23 17.762, 23 15 C 23 12.333, 22.667 12, 20 12 C 17.333 12, 17 12.333, 17 15 M 63.530 12.952 C 62.256 15.013, 64.059 18.133, 66.336 17.808 C 69.390 17.373, 69.397 12.628, 66.344 12.193 C 65.159 12.024, 63.892 12.365, 63.530 12.952 M 57.389 19.430 C 56.393 22.025, 57.788 24.169, 60.246 23.820 C 61.898 23.585, 62.500 22.833, 62.500 21 C 62.500 19.167, 61.898 18.415, 60.246 18.180 C 58.893 17.988, 57.750 18.488, 57.389 19.430 M 70.105 19.373 C 68.462 21.353, 69.832 24, 72.500 24 C 73.757 24, 75.067 23.268, 75.410 22.373 C 76.111 20.548, 74.415 18, 72.500 18 C 71.810 18, 70.732 18.618, 70.105 19.373 M 64.200 25.200 C 61.738 27.662, 64.162 31.643, 67.373 30.410 C 69.459 29.610, 69.491 25.403, 67.418 24.607 C 65.404 23.834, 65.602 23.798, 64.200 25.200" stroke="none" fill="#fc44a4" fill-rule="evenodd"/></svg>